<?xml version="1.0" encoding="UTF-8"?>
<svg version="1.1" xmlns="http://www.w3.org/2000/svg" width="512" height="512">
<path d="M0 0 C1.09211288 -0.00807175 2.18422577 -0.01614349 3.30943298 -0.02445984 C5.62334631 -0.03826051 7.93727965 -0.04900054 10.2512207 -0.05688477 C12.57517634 -0.06830904 14.89910778 -0.08860544 17.22290039 -0.1184082 C32.85698705 -0.31842975 47.46533094 0.71446741 62.71484375 4.23828125 C63.95161865 4.52082764 65.18839355 4.80337402 66.46264648 5.09448242 C69.46486628 5.83009839 72.43285524 6.6308216 75.40234375 7.48828125 C76.44503418 7.78710205 77.48772461 8.08592285 78.56201172 8.39379883 C103.0910283 15.64280135 126.47038835 27.63411538 146.71484375 43.23828125 C147.71515625 44.00785156 148.71546875 44.77742188 149.74609375 45.5703125 C173.19644623 64.26994702 191.73809279 86.30615473 206.71484375 112.23828125 C207.11300293 112.91407227 207.51116211 113.58986328 207.92138672 114.28613281 C217.55597817 130.75987032 223.6427554 148.81416429 228.15234375 167.30078125 C228.50462036 168.74227539 228.50462036 168.74227539 228.86401367 170.21289062 C232.40036235 185.62042532 233.06281107 200.70046696 233.03051758 216.4465332 C233.02735221 219.66717254 233.05092534 222.88689488 233.07617188 226.10742188 C233.1138875 238.16767384 232.37576491 249.47161756 229.71484375 261.23828125 C229.47983154 262.3269751 229.24481934 263.41566895 229.00268555 264.53735352 C228.34596794 267.47131873 227.63993292 270.38617888 226.90234375 273.30078125 C226.64662598 274.31664307 226.3909082 275.33250488 226.12744141 276.37915039 C219.16275337 303.26573928 206.08148737 329.55860306 188.71484375 351.23828125 C188.38484375 351.89828125 188.05484375 352.55828125 187.71484375 353.23828125 C187.05484375 353.23828125 186.39484375 353.23828125 185.71484375 353.23828125 C185.4523584 353.9844873 185.18987305 354.73069336 184.91943359 355.49951172 C183.70519761 358.26021282 182.50073846 359.88438026 180.44140625 362.05859375 C179.78785156 362.75315674 179.13429688 363.44771973 178.4609375 364.16333008 C177.76097656 364.88931396 177.06101562 365.61529785 176.33984375 366.36328125 C175.61667969 367.11955811 174.89351563 367.87583496 174.1484375 368.6550293 C159.06356886 384.30891788 142.49988904 397.29474155 123.71484375 408.23828125 C123.05967773 408.62081055 122.40451172 409.00333984 121.72949219 409.39746094 C93.30248204 425.75100822 59.3238319 436.26147602 26.38671875 436.44140625 C25.09237411 436.4519957 25.09237411 436.4519957 23.7718811 436.46279907 C-11.86713059 436.68827372 -11.86713059 436.68827372 -27.28515625 433.23828125 C-28.68459473 432.94026611 -28.68459473 432.94026611 -30.11230469 432.63623047 C-44.70791125 429.47408591 -58.48463559 424.91389482 -72.28515625 419.23828125 C-76.06823342 425.00321526 -79.22839031 430.93281495 -82.2265625 437.13671875 C-83.14863209 439.01584904 -84.07117172 440.89474876 -84.99414062 442.7734375 C-86.42997956 445.70729639 -87.86197901 448.64285067 -89.28588867 451.58251953 C-90.67206742 454.43930468 -92.07310011 457.28839381 -93.4765625 460.13671875 C-93.89958145 461.01999847 -94.3226004 461.9032782 -94.75843811 462.81332397 C-95.16243332 463.62822296 -95.56642853 464.44312195 -95.98266602 465.28271484 C-96.33176529 466.00026947 -96.68086456 466.7178241 -97.0405426 467.4571228 C-98.52747969 469.58506874 -99.90705585 470.2737939 -102.28515625 471.23828125 C-100.88712584 464.38160949 -98.96998158 457.86151403 -96.72265625 451.23828125 C-96.37912109 450.21605469 -96.03558594 449.19382812 -95.68164062 448.140625 C-91.72379007 436.44471475 -87.52173186 424.83561112 -83.28515625 413.23828125 C-84.0740625 413.02429688 -84.86296875 412.8103125 -85.67578125 412.58984375 C-90.47725648 410.79188874 -94.66115664 408.26720531 -99.03515625 405.61328125 C-99.92895996 405.07348633 -100.82276367 404.53369141 -101.74365234 403.97753906 C-107.99672691 400.14828726 -113.73237679 396.03110002 -119.28515625 391.23828125 C-120.90708479 389.96353023 -122.53219869 388.69282369 -124.16015625 387.42578125 C-132.81616501 380.47126563 -140.79646825 372.93232574 -148.41015625 364.86328125 C-148.96678955 364.28046387 -149.52342285 363.69764648 -150.09692383 363.09716797 C-152.98259717 359.98413854 -155.02647941 357.38725304 -156.28515625 353.23828125 C-156.94515625 353.23828125 -157.60515625 353.23828125 -158.28515625 353.23828125 C-159.2333525 351.90378283 -160.16596767 350.55667375 -161.0390625 349.171875 C-162.42013147 347.02883694 -163.91166822 344.98840595 -165.41015625 342.92578125 C-170.51365279 335.65384627 -174.87881574 327.94387838 -179.28515625 320.23828125 C-180.26742187 318.54445313 -180.26742187 318.54445313 -181.26953125 316.81640625 C-195.86835467 290.8485876 -203.35830548 258.77166741 -203.48828125 229.10546875 C-203.49398132 228.0699588 -203.4996814 227.03444885 -203.5055542 225.96755981 C-203.51494401 223.7876282 -203.52151401 221.60768277 -203.52539062 219.42773438 C-203.53506878 216.14296883 -203.56613967 212.85883732 -203.59765625 209.57421875 C-203.65750507 197.71421492 -203.04333076 186.78984378 -200.28515625 175.23828125 C-199.92556672 173.47974069 -199.5684519 171.72069056 -199.21484375 169.9609375 C-194.56517166 148.86795147 -187.20443178 128.88906078 -176.28515625 110.23828125 C-175.87120605 109.52849121 -175.45725586 108.81870117 -175.03076172 108.08740234 C-161.36079878 84.90882901 -143.46840835 63.84293714 -122.28515625 47.23828125 C-121.31191406 46.44808594 -120.33867188 45.65789062 -119.3359375 44.84375 C-86.43521425 18.63050124 -42.37616459 0.30323761 0 0 Z " fill="#14120F" transform="translate(241.28515625,38.76171875)"/>
<path d="M0 0 C0.82190826 0.00049347 1.64381653 0.00098694 2.4906311 0.00149536 C30.40797302 0.05265767 30.40797302 0.05265767 43.1875 4.3125 C42.71031558 8.51172291 42.20355116 11.2702792 39.1875 14.3125 C36.59375 14.73828125 36.59375 14.73828125 33.6875 14.625 C32.7284375 14.60050781 31.769375 14.57601562 30.78125 14.55078125 C28.1875 14.3125 28.1875 14.3125 25.1875 13.3125 C23.7895206 13.21205972 22.38736333 13.16427323 20.98583984 13.15136719 C20.14000336 13.14175964 19.29416687 13.1321521 18.42269897 13.12225342 C17.04943954 13.1158786 17.04943954 13.1158786 15.6484375 13.109375 C14.69417877 13.10367493 13.73992004 13.09797485 12.75674438 13.09210205 C10.72748929 13.08264435 8.69821879 13.07611502 6.66894531 13.07226562 C3.62275505 13.06268942 0.57727808 13.03172946 -2.46875 13 C-17.40969847 12.91784977 -31.7261018 14.02252745 -45.9375 19 C-46.67484375 19.25346191 -47.4121875 19.50692383 -48.171875 19.76806641 C-59.95685518 23.98747404 -70.45431981 29.93747493 -79.8125 38.3125 C-80.72 39.116875 -81.6275 39.92125 -82.5625 40.75 C-91.84780513 51.32493084 -94.71790439 61.54968326 -94.28125 75.3984375 C-93.74761796 83.00862335 -91.15817441 89.52779141 -87.8125 96.3125 C-87.49104004 96.96814941 -87.16958008 97.62379883 -86.83837891 98.29931641 C-81.77052414 108.37847054 -75.40774499 117.33285038 -68.46875 126.19580078 C-66.71799977 128.43327196 -64.98305986 130.68239775 -63.25 132.93359375 C-59.79522975 137.41255138 -56.31053685 141.8672854 -52.8125 146.3125 C-52.02230469 147.32054687 -51.23210937 148.32859375 -50.41796875 149.3671875 C-45.5554418 155.44760153 -40.31480671 161.10373761 -34.97363281 166.75976562 C-30.7583627 171.24234555 -26.77569543 175.84825178 -22.94140625 180.6640625 C-21.48308289 182.47827028 -19.98863143 184.26385572 -18.46484375 186.0234375 C-3.82347458 202.961947 9.86734983 223.32923798 15.1875 245.3125 C15.37570312 245.94671875 15.56390625 246.5809375 15.7578125 247.234375 C18.42621822 260.13975538 15.45424385 275.20718887 8.59765625 286.3203125 C4.28018197 292.41979141 0.10991061 297.25066454 -6.8125 300.3125 C-7.8025 299.9825 -8.7925 299.6525 -9.8125 299.3125 C-9.23242188 298.63767578 -9.23242188 298.63767578 -8.640625 297.94921875 C2.02819994 284.77163547 2.56653909 268.58240317 1.1875 252.3125 C0.24784625 247.64694074 -1.69861623 243.55307895 -3.8125 239.3125 C-4.50707077 237.32201868 -5.18133042 235.32398438 -5.8125 233.3125 C-6.1425 233.6425 -6.4725 233.9725 -6.8125 234.3125 C-6.54695312 235.10914063 -6.28140625 235.90578125 -6.0078125 236.7265625 C-4.94270833 239.921875 -3.87760417 243.1171875 -2.8125 246.3125 C-2.26529297 247.66794922 -2.26529297 247.66794922 -1.70703125 249.05078125 C1.25384379 259.84698499 0.69269079 274.28665798 -4.0078125 284.41796875 C-12.75713382 298.45097112 -25.08270103 305.76914034 -40.8125 310.3125 C-47.6765803 311.72208792 -54.64902742 311.45961085 -61.625 311.4375 C-62.86443359 311.44136719 -64.10386719 311.44523437 -65.38085938 311.44921875 C-66.56099609 311.44792969 -67.74113281 311.44664062 -68.95703125 311.4453125 C-70.03315674 311.44418457 -71.10928223 311.44305664 -72.21801758 311.44189453 C-74.8125 311.3125 -74.8125 311.3125 -76.8125 310.3125 C-78.17058547 310.16326579 -79.53419423 310.06249253 -80.8984375 309.98828125 C-113.05137372 307.86351526 -144.36586331 293.3522588 -170.8125 275.3125 C-171.54984375 274.82265625 -172.2871875 274.3328125 -173.046875 273.828125 C-180.18369411 268.83771765 -186.06495744 262.03600514 -187.8125 253.3125 C-188.56458942 246.82477915 -189.24346761 240.40028654 -185.375 234.8125 C-173.71255372 222.00292785 -155.50529 216.72371945 -138.8125 215.3125 C-132.78955413 215.03047899 -126.76160961 215.06493026 -120.73364258 215.10668945 C-117.98704822 215.12508675 -115.24079062 215.12719738 -112.49414062 215.12695312 C-110.71874713 215.13186557 -108.94335587 215.13769269 -107.16796875 215.14453125 C-106.36151413 215.14564407 -105.55505951 215.1467569 -104.72416687 215.14790344 C-96.48404726 215.21573812 -88.76072388 216.14480258 -80.8125 218.3125 C-81.26695964 219.73041408 -81.72624944 221.14678046 -82.1875 222.5625 C-82.57035156 223.74585938 -82.57035156 223.74585938 -82.9609375 224.953125 C-83.76423667 227.17877958 -84.70961662 229.22181672 -85.8125 231.3125 C-87.14861328 231.0959375 -87.14861328 231.0959375 -88.51171875 230.875 C-113.47588082 227.20255376 -142.93015808 225.82511292 -164.4375 241.1875 C-166.60095047 244.53101436 -166.44739585 246.37614572 -165.8125 250.3125 C-157.23463707 269.78487498 -131.12919028 282.05448841 -112.1875 289.625 C-103.4226635 292.9380973 -94.33388508 293.94085803 -85.07861328 295.02001953 C-82.35159838 295.37198719 -79.68813222 295.92595115 -77 296.5 C-70.88664217 297.55586296 -64.74964603 297.52773815 -58.5625 297.5625 C-57.5314917 297.57176514 -56.5004834 297.58103027 -55.43823242 297.59057617 C-42.27688706 297.53624767 -29.42460841 293.83206719 -19.72265625 284.5703125 C-12.68366224 276.25019279 -11.00894759 267.01883549 -11.60351562 256.42382812 C-13.32935257 238.98803618 -24.13209566 224.50908687 -35.9375 212.328125 C-38.58441347 209.59391227 -40.99656321 206.72304598 -43.375 203.75 C-47.81875778 198.22532816 -52.57097604 193.02499066 -57.39648438 187.83740234 C-61.56081259 183.35285165 -65.68331241 178.82937585 -69.8125 174.3125 C-70.58464844 173.46945312 -71.35679687 172.62640625 -72.15234375 171.7578125 C-82.35520157 160.53287578 -91.49181192 148.83686894 -100.25927734 136.47851562 C-101.67617234 134.50261302 -103.11984785 132.55187636 -104.58203125 130.609375 C-117.19704911 113.73699685 -125.96856869 94.86521682 -126.0625 73.625 C-126.083125 72.47837891 -126.10375 71.33175781 -126.125 70.15039062 C-126.19670921 54.49089136 -119.44607765 43.64661746 -108.75 32.625 C-81.31884187 5.6002294 -36.78757512 -0.15330292 0 0 Z " fill="#5E57A8" transform="translate(284.8125,100.6875)"/>
<path d="M0 0 C3.98561154 2.62688033 6.23980531 5.28191592 7.75 9.8125 C7.89679934 11.64184565 7.97102635 13.47750243 8 15.3125 C8.02578125 16.2715625 8.0515625 17.230625 8.078125 18.21875 C7.04184956 29.56843339 1.93353433 39.38821973 -2.9375 49.5 C-3.62774562 50.95209752 -4.31720274 52.40457011 -5.00585938 53.85742188 C-12.09050483 68.7592786 -19.54392043 83.47076124 -27.125 98.125 C-27.47171753 98.7960376 -27.81843506 99.4670752 -28.17565918 100.15844727 C-33.02223635 109.53845354 -37.90381996 118.89902293 -42.8359375 128.234375 C-45.61717059 133.50091613 -48.37155569 138.78139028 -51.125 144.0625 C-51.62805664 145.02736328 -52.13111328 145.99222656 -52.64941406 146.98632812 C-53.67228772 148.94852226 -54.69507372 150.91076208 -55.71777344 152.87304688 C-58.22707909 157.68694745 -60.73865195 162.49966471 -63.25 167.3125 C-64.23568256 169.20182006 -65.22135962 171.09114299 -66.20703125 172.98046875 C-68.34979159 177.08748441 -70.49311846 181.19420394 -72.63671875 185.30078125 C-73.18908203 186.35910156 -73.74144531 187.41742188 -74.31054688 188.5078125 C-75.37551191 190.54824971 -76.44061084 192.58861703 -77.50585938 194.62890625 C-77.98216797 195.5415625 -78.45847656 196.45421875 -78.94921875 197.39453125 C-79.37033936 198.20124268 -79.79145996 199.0079541 -80.2253418 199.83911133 C-80.9103497 201.15836768 -81.58521836 202.48293672 -82.25 203.8125 C-85.25 202.8125 -85.25 202.8125 -86.6472168 200.70849609 C-87.50854546 196.57035087 -85.85032927 194.00931922 -83.89453125 190.4765625 C-83.52188644 189.76893768 -83.14924164 189.06131287 -82.76530457 188.33224487 C-81.54677183 186.02525024 -80.3045413 183.73190892 -79.0625 181.4375 C-77.79577079 179.05023089 -76.53574108 176.6595115 -75.27633667 174.26837158 C-74.43869855 172.67843952 -73.5991191 171.0895287 -72.75759888 169.50164795 C-69.41483748 163.18153393 -66.27859947 156.7898023 -63.25 150.3125 C-58.53929734 140.31526374 -53.48593995 130.54335974 -48.25 120.8125 C-47.14447982 118.75002757 -46.03901421 116.68752588 -44.93359375 114.625 C-37.43463362 100.65358099 -29.86223751 86.72247982 -22.25 72.8125 C-24.56267894 75.12120527 -26.87447976 77.43008245 -29.1640625 79.76171875 C-29.72867188 80.33535156 -30.29328125 80.90898437 -30.875 81.5 C-31.44476563 82.08136719 -32.01453125 82.66273438 -32.6015625 83.26171875 C-35.01461938 85.53182202 -36.5744028 86.78107687 -39.9375 86.9375 C-40.700625 86.89625 -41.46375 86.855 -42.25 86.8125 C-42.25 85.1625 -42.25 83.5125 -42.25 81.8125 C-42.91 81.8125 -43.57 81.8125 -44.25 81.8125 C-44.82814453 83.64941406 -44.82814453 83.64941406 -45.41796875 85.5234375 C-47.46112669 91.63980651 -50.00404257 97.5220857 -52.5625 103.4375 C-52.82155121 104.03897858 -53.08060242 104.64045715 -53.34750366 105.26016235 C-59.48106661 119.49791927 -65.87491992 133.61704936 -72.29974365 147.72515869 C-74.32174341 152.16670083 -76.33996891 156.60995993 -78.35902405 161.05284119 C-79.99709883 164.65707682 -81.63584997 168.26100016 -83.27661133 171.86401367 C-86.29783834 178.50035386 -89.30348878 185.14253678 -92.25 191.8125 C-93.9437218 190.16717025 -95.60310686 188.50378379 -97.25 186.8125 C-97.73855469 186.33167969 -98.22710937 185.85085937 -98.73046875 185.35546875 C-100.125 183.875 -100.125 183.875 -102.25 180.8125 C-101.93657579 176.06906645 -100.24551537 172.06099943 -98.28515625 167.79296875 C-97.8283976 166.77533951 -97.8283976 166.77533951 -97.3624115 165.7371521 C-96.70029255 164.26392057 -96.03501722 162.79210443 -95.36694336 161.32156372 C-93.91520711 158.12528184 -92.47948445 154.92188475 -91.04257202 151.71891785 C-90.28051438 150.02066109 -89.51766207 148.32276073 -88.75405884 146.62519836 C-84.5308957 137.23265882 -80.38649226 127.80595533 -76.25 118.375 C-75.8785083 117.5292038 -75.5070166 116.68340759 -75.12426758 115.8119812 C-70.93681065 106.27798236 -66.77571957 96.73323847 -62.66015625 87.16796875 C-62.10671036 85.88274071 -62.10671036 85.88274071 -61.54208374 84.57154846 C-59.78531657 80.4906988 -58.0325985 76.4081962 -56.28710938 72.32250977 C-55.66156847 70.86600087 -55.03592333 69.40953674 -54.41015625 67.953125 C-54.13285172 67.2998674 -53.85554718 66.6466098 -53.56983948 65.97355652 C-50.49199248 58.83104261 -50.49199248 58.83104261 -48.25 55.8125 C-44.07970253 55.28293842 -41.58491277 55.24516207 -37.75 56.875 C-35.47458361 59.8140795 -35.92805978 62.20676955 -36.25 65.8125 C-36.745 67.2975 -36.745 67.2975 -37.25 68.8125 C-37.31665376 70.20689664 -37.33538199 71.60419875 -37.3125 73 C-37.291875 74.258125 -37.27125 75.51625 -37.25 76.8125 C-34.52662826 76.46534492 -33.4181852 75.98855132 -31.49609375 73.9765625 C-22.99068631 62.0359257 -14.23429765 49.03864253 -10.25 34.8125 C-10.02957031 34.12414062 -9.80914062 33.43578125 -9.58203125 32.7265625 C-8.0227866 27.43140952 -8.04761595 22.29935657 -8.25 16.8125 C-10.95200421 16.22310103 -10.95200421 16.22310103 -14.25 16.8125 C-15.98943623 18.37692537 -15.98943623 18.37692537 -17.625 20.3125 C-20.67706603 23.65556124 -20.67706603 23.65556124 -23.33203125 24.3828125 C-26.63384463 24.46857389 -28.91927122 24.01093727 -31.75 22.3125 C-32.245 21.8175 -32.74 21.3225 -33.25 20.8125 C-32.48874528 14.1396266 -27.9212717 10.28377842 -23.25 5.8125 C-16.0181386 0.16756743 -9.1366831 -3.33840344 0 0 Z " fill="#928E88" transform="translate(347.25,64.1875)"/>
<path d="M0 0 C12.94347166 3.46700134 25.13376893 11.04399783 35 20 C35.93714844 20.84433594 36.87429688 21.68867188 37.83984375 22.55859375 C47.45938 31.52342244 53.70407108 41.44769645 54.3359375 54.8046875 C54.55794334 67.24186706 53.9203931 76.8439527 44.96484375 86.25390625 C38.1190762 92.33752075 29.68069746 94.62936776 21 97 C20.34515625 97.19464844 19.6903125 97.38929688 19.015625 97.58984375 C5.29201417 100.38243898 -8.23015148 95.91451506 -20 89 C-21.34899328 88.02122786 -22.68730325 87.02693964 -24 86 C-23.125 81.125 -23.125 81.125 -22 80 C-15.72477141 80 -11.4318499 81.68280628 -5.9375 84.5625 C3.24900207 89.24634194 12.37855609 89.30832221 22.4375 87.3125 C29.86839219 84.57480288 35.11067052 82.00385898 39.125 74.96484375 C42.37420795 67.66863125 42.11665716 58.27634624 40.12890625 50.6640625 C37.77106601 44.64963723 34.64919694 39.73830165 30.453125 34.83984375 C29 33 29 33 28 30 C26.69027348 29.28807397 25.3536521 28.62437827 24 28 C23.05125 27.13375 22.1025 26.2675 21.125 25.375 C17.70086012 22.35849582 13.95114799 20.06478985 10 17.8125 C9.41879395 17.47976074 8.83758789 17.14702148 8.23876953 16.80419922 C4.25341905 14.57593951 0.21397901 12.73611635 -4 11 C-3.52269162 9.5410574 -3.04308958 8.08286504 -2.5625 6.625 C-2.29566406 5.81289062 -2.02882813 5.00078125 -1.75390625 4.1640625 C-1 2 -1 2 0 0 Z " fill="#726AC5" transform="translate(351,112)"/>
<path d="M0 0 C5.01160673 1.90132539 7.36024066 4.10630396 11 8 C9.56720235 12.5868875 7.75667527 16.91081973 5.7265625 21.2578125 C5.065017 22.69030806 4.40356244 24.12284561 3.7421875 25.55541992 C3.39639648 26.30149506 3.05060547 27.04757019 2.69433594 27.81625366 C-4.84142583 44.08631601 -12.04705092 60.4727279 -19 77 C-15.27691472 69.76127995 -11.92372234 62.40477272 -8.6875 54.9375 C-2.09522524 39.87023492 4.57467275 25.13931249 13 11 C16.55826545 12.87277129 18.707959 14.11064792 20 18 C19.34423828 20.03613281 19.34423828 20.03613281 18.0703125 22.203125 C17.60890869 23.00975586 17.14750488 23.81638672 16.67211914 24.64746094 C16.16156982 25.50629883 15.65102051 26.36513672 15.125 27.25 C14.08226286 29.07156057 13.04191835 30.89449275 12.00390625 32.71875 C11.48715332 33.61980469 10.97040039 34.52085937 10.43798828 35.44921875 C8.53218844 38.82982941 6.77279313 42.26731326 5.0625 45.75 C4.75521973 46.37221436 4.44793945 46.99442871 4.13134766 47.63549805 C3.46679235 48.98348617 2.80343782 50.33206675 2.14111328 51.68115234 C-0.22211321 56.483447 -2.6108449 61.27306538 -5 66.0625 C-5.51199951 67.08891602 -6.02399902 68.11533203 -6.55151367 69.17285156 C-10.56482573 77.19049017 -14.71029388 85.12712759 -19 93 C-25.40353322 93.2361959 -30.84629161 92.823321 -37 91 C-34.37737088 81.08444451 -30.27416231 71.84462078 -26.25 62.4375 C-25.20418443 59.9801736 -24.15987683 57.5222108 -23.11582947 55.06413269 C-22.42366378 53.43458614 -21.73092424 51.80528321 -21.03761292 50.17622375 C-18.4779295 44.15374885 -15.973389 38.11005067 -13.4908905 32.05541992 C-10.73083439 25.32832024 -7.90403163 18.63062361 -5.0625 11.9375 C-4.56943359 10.77412109 -4.07636719 9.61074219 -3.56835938 8.41210938 C-2.37967798 5.60774453 -1.19022651 2.80370933 0 0 Z " fill="#797672" transform="translate(222,295)"/>
<path d="M0 0 C1.958964 0.30852185 3.91715713 0.6219418 5.875 0.9375 C6.96554688 1.11152344 8.05609375 1.28554688 9.1796875 1.46484375 C12 2 12 2 14 3 C12.40172345 7.21880615 10.44575097 11.22214787 8.41015625 15.2421875 C8.06496445 15.92878448 7.71977264 16.61538147 7.36412048 17.32278442 C5.89657947 20.24162465 4.42430679 23.15807033 2.95239258 26.07470703 C1.87413066 28.21302427 0.79834593 30.35257543 -0.27734375 32.4921875 C-0.60556625 33.14033417 -0.93378876 33.78848083 -1.2719574 34.45626831 C-3.02381416 37.94153206 -4.62827161 41.44900961 -6.14311218 45.04577637 C-9.41755556 52.51349209 -13.20964371 59.76920268 -16.83325195 67.0715332 C-17.90596021 69.23866182 -18.97364431 71.40828434 -20.03637695 73.58032227 C-21.57395957 76.72213267 -23.12695797 79.85587596 -24.68359375 82.98828125 C-25.15663437 83.96219315 -25.62967499 84.93610504 -26.11705017 85.93952942 C-26.56754227 86.83773911 -27.01803436 87.73594879 -27.48217773 88.66137695 C-27.8728392 89.45300735 -28.26350067 90.24463776 -28.66600037 91.06025696 C-30.20253859 93.29450744 -31.50723286 94.01401119 -34 95 C-32.6019901 88.14342881 -30.68543872 81.62295923 -28.4375 75 C-28.09106445 73.97197266 -27.74462891 72.94394531 -27.38769531 71.88476562 C-24.73720498 64.06806532 -22.01835547 56.27569436 -19.25 48.5 C-18.88575928 47.46875 -18.52151855 46.4375 -18.14624023 45.375 C-16.32619729 40.31632063 -14.35089197 35.50974488 -11.86621094 30.74316406 C-10.64239512 28.28035545 -9.81385102 25.74821623 -9 23.125 C-6.45809505 15.22017403 -3.30866834 7.60993717 0 0 Z " fill="#6C6A67" transform="translate(173,415)"/>
<path d="M0 0 C2.16697792 2.76155629 3.90793123 5.5307276 5.53125 8.640625 C16.63244131 29.61790581 29.50728393 47.29980078 45.78125 64.5703125 C49.28963594 68.29697131 52.67283683 72.11120031 56 76 C56.92138579 77.05641646 57.84331408 78.11235989 58.765625 79.16796875 C77 100.12211602 77 100.12211602 77 104 C73.76951252 102.5800745 71.61757512 100.86380613 69.13671875 98.3671875 C68.41419922 97.64273438 67.69167969 96.91828125 66.94726562 96.171875 C66.20154297 95.41390625 65.45582031 94.6559375 64.6875 93.875 C63.95337891 93.14023437 63.21925781 92.40546875 62.46289062 91.6484375 C58.32780354 87.48032842 54.35914473 83.21527253 50.52563477 78.76855469 C48.60016135 76.53649685 46.6138803 74.36307596 44.625 72.1875 C39.89507748 66.93736604 35.40663713 61.52318371 31 56 C30.195625 55.00226563 29.39125 54.00453125 28.5625 52.9765625 C19.35832226 41.41400608 11.85039401 29.19124022 5.4375 15.875 C5.00759766 14.98619141 4.57769531 14.09738281 4.13476562 13.18164062 C2.07704366 8.78848788 0.45725248 4.89340378 0 0 Z " fill="#141211" transform="translate(178,194)"/>
<path d="M0 0 C7.59265919 1.75215212 13.84720562 7.33425777 19 13 C19 13.66 19 14.32 19 15 C13.62259304 14.43432472 9.11266608 13.11769442 4.125 11.0625 C3.44953125 10.79759766 2.7740625 10.53269531 2.078125 10.25976562 C-2.87146495 8.25707009 -2.87146495 8.25707009 -4 6 C-2.68 4.02 -1.36 2.04 0 0 Z " fill="#4F4890" transform="translate(243,334)"/>
<path d="M0 0 C3.3737829 1.18538318 5.77938341 2.15403735 8 5 C9.41322808 12.65180249 7.31933236 19.18287656 4 26 C3.53787109 26.96873047 3.53787109 26.96873047 3.06640625 27.95703125 C2.40104191 29.31641198 1.70489852 30.66069281 1 32 C0 30 0 30 0.55859375 28.07421875 C0.84863281 27.28660156 1.13867188 26.49898437 1.4375 25.6875 C3.37364228 19.54894753 3.85396982 13.38802913 3 7 C1.55016779 4.28575799 1.55016779 4.28575799 0 2 C0 1.34 0 0.68 0 0 Z " fill="#23211F" transform="translate(341,72)"/>
<path d="M0 0 C0.53753906 0.22945313 1.07507813 0.45890625 1.62890625 0.6953125 C0.81550781 1.07558594 0.00210938 1.45585938 -0.8359375 1.84765625 C-8.81118981 5.94742037 -15.07393414 10.7953144 -21.43359375 17.1328125 C-22.14700928 17.83591553 -22.8604248 18.53901855 -23.59545898 19.26342773 C-28.18724603 23.97706768 -31.48403709 28.78536823 -34.37109375 34.6953125 C-35.37109375 31.6953125 -35.37109375 31.6953125 -34.39453125 29.453125 C-28.70505179 20.36613648 -12.64142557 -1.6244336 0 0 Z " fill="#7C74D5" transform="translate(198.37109375,119.3046875)"/>
<path d="M0 0 C0.66 0 1.32 0 2 0 C2.96238036 2.03976214 3.91972527 4.08190046 4.875 6.125 C5.40867187 7.26195312 5.94234375 8.39890625 6.4921875 9.5703125 C10.58482143 18.87946429 10.58482143 18.87946429 9 23 C8.34 21.68 7.68 20.36 7 19 C6.67 19 6.34 19 6 19 C5.73445313 18.13117188 5.46890625 17.26234375 5.1953125 16.3671875 C4.84210938 15.21476562 4.48890625 14.06234375 4.125 12.875 C3.77695312 11.73804688 3.42890625 10.60109375 3.0703125 9.4296875 C2.08503467 6.27248336 1.05727464 3.13372394 0 0 Z " fill="#1C1924" transform="translate(277,334)"/>
<path d="M0 0 C2.14909962 2.76854598 4.01778828 5.57834526 5.75 8.625 C6.19859375 9.40101563 6.6471875 10.17703125 7.109375 10.9765625 C7.40328125 11.64429688 7.6971875 12.31203125 8 13 C7.67 13.66 7.34 14.32 7 15 C6.34 15 5.68 15 5 15 C4.16013916 13.06532058 3.32831973 11.12714871 2.5 9.1875 C2.0359375 8.10855469 1.571875 7.02960938 1.09375 5.91796875 C0 3 0 3 0 0 Z " fill="#18161D" transform="translate(178,194)"/>
<path d="M0 0 C0.99 0.33 1.98 0.66 3 1 C2.46890625 1.45890625 1.9378125 1.9178125 1.390625 2.390625 C-2.18324699 5.49493717 -5.71854059 8.58181312 -9 12 C-9.66 11.67 -10.32 11.34 -11 11 C-9.92173635 9.72486237 -8.83714481 8.45507431 -7.75 7.1875 C-7.14671875 6.47980469 -6.5434375 5.77210937 -5.921875 5.04296875 C-4.04292789 3.0456327 -2.35120488 1.41542534 0 0 Z " fill="#9D9892" transform="translate(328,67)"/>
<path d="M0 0 C1.2890625 1.4609375 1.2890625 1.4609375 2.625 3.375 C3.29402344 4.31472656 3.29402344 4.31472656 3.9765625 5.2734375 C5 7 5 7 5 9 C0.7257442 7.4169423 -1.26531794 4.49431596 -4 1 C-2 0 -2 0 0 0 Z " fill="#19171D" transform="translate(250,289)"/>
<path d="M0 0 C3.33727786 1.17255709 5.77437487 2.18868404 8 5 C8 5.66 8 6.32 8 7 C5.6875 7.3125 5.6875 7.3125 3 7 C1.18116991 4.6167054 0 3.04181663 0 0 Z " fill="#12110E" transform="translate(341,72)"/>
<path d="M0 0 C0 3 0 3 -1.3125 4.60546875 C-1.869375 5.12753906 -2.42625 5.64960938 -3 6.1875 C-3.556875 6.71730469 -4.11375 7.24710937 -4.6875 7.79296875 C-5.120625 8.19128906 -5.55375 8.58960938 -6 9 C-6.66 8.67 -7.32 8.34 -8 8 C-3.375 2.25 -3.375 2.25 0 0 Z " fill="#524B97" transform="translate(107,329)"/>
<path d="M0 0 C3.36720387 1.39332574 4.9859524 2.9789286 7 6 C4 6 4 6 1.8125 4.125 C0 2 0 2 0 0 Z " fill="#1A1720" transform="translate(387,132)"/>
</svg>
