<svg id="svg" version="1.1" width="400" height="400" viewBox="0 0 400 400" xmlns="http://www.w3.org/2000/svg" xmlns:xlink="http://www.w3.org/1999/xlink"><g id="svgg"><path id="path0" d="M56.000 162.000 L 56.000 168.800 60.400 168.800 L 64.800 168.800 64.800 173.000 L 64.800 177.200 69.200 177.200 L 73.600 177.200 73.600 181.386 L 73.600 185.573 77.900 185.686 L 82.200 185.800 82.314 189.900 L 82.428 194.000 86.814 194.000 L 91.200 194.000 91.200 195.800 L 91.200 197.600 86.800 197.600 L 82.400 197.600 82.400 201.000 L 82.400 204.400 88.400 204.400 L 94.400 204.400 94.400 203.400 L 94.400 202.400 98.800 202.400 L 103.200 202.400 103.200 195.800 L 103.200 189.200 98.800 189.200 L 94.400 189.200 94.400 185.000 L 94.400 180.800 90.200 180.800 L 86.000 180.800 86.000 176.400 L 86.000 172.000 81.600 172.000 L 77.200 172.000 77.200 167.800 L 77.200 163.600 72.800 163.600 L 68.400 163.600 68.400 159.400 L 68.400 155.200 62.200 155.200 L 56.000 155.200 56.000 162.000 M13.969 161.400 C 13.902 161.400,13.521 163.052,13.416 163.800 C 13.354 164.240,13.205 164.870,13.085 165.200 C 10.115 173.392,9.058 211.169,11.400 225.400 C 11.509 226.060,11.961 228.880,12.405 231.667 C 29.722 340.350,138.152 411.504,246.000 384.957 C 336.374 362.712,398.125 276.113,389.440 183.800 C 388.810 177.099,387.348 166.371,386.906 165.200 C 386.666 164.563,386.487 163.762,386.260 162.300 C 386.183 161.805,386.003 161.445,385.860 161.500 C 385.717 161.555,382.735 161.600,379.233 161.600 L 372.866 161.600 373.009 162.900 C 373.173 164.389,373.315 165.275,374.155 170.043 C 390.727 264.114,328.268 355.102,234.305 373.773 C 125.304 395.431,23.425 311.673,23.425 200.400 C 23.425 186.984,23.720 183.776,26.657 165.200 C 26.744 164.650,26.883 163.623,26.966 162.918 L 27.117 161.637 20.558 161.518 C 16.950 161.453,13.985 161.400,13.969 161.400 " stroke="none" fill="#04cc6d" fill-rule="evenodd"></path><path id="path1" d="M146.000 171.600 L 146.000 178.800 138.600 178.800 L 131.200 178.800 131.200 190.200 L 131.200 201.600 138.600 201.600 L 146.000 201.600 146.000 208.800 L 146.000 216.000 162.934 216.000 C 172.248 216.000,187.188 216.119,196.134 216.265 L 212.400 216.530 212.400 212.065 L 212.400 207.600 204.800 207.600 L 197.200 207.600 197.200 200.403 L 197.200 193.207 174.900 193.103 L 152.600 193.000 152.482 190.100 L 152.365 187.200 182.382 187.200 L 212.400 187.200 212.400 175.800 L 212.400 164.400 179.200 164.400 L 146.000 164.400 146.000 171.600 M233.200 190.400 L 233.200 216.400 243.800 216.400 L 254.400 216.400 254.400 201.800 L 254.400 187.200 266.200 187.200 L 278.000 187.200 278.000 201.800 L 278.000 216.400 288.600 216.400 L 299.200 216.400 299.200 201.800 L 299.200 187.200 311.000 187.200 L 322.800 187.200 322.803 199.100 C 322.804 205.645,322.920 212.215,323.061 213.700 L 323.316 216.400 333.658 216.400 L 344.000 216.400 344.000 197.600 L 344.000 178.800 336.625 178.800 L 329.250 178.800 329.487 171.600 L 329.724 164.400 311.262 164.400 L 292.800 164.400 292.800 171.600 L 292.800 178.800 288.600 178.800 L 284.400 178.800 284.400 171.600 L 284.400 164.400 258.800 164.400 L 233.200 164.400 233.200 190.400 " stroke="none" fill="#cccccc" fill-rule="evenodd"></path><path id="path2" d="M184.800 31.241 C 85.684 39.883,15.517 132.401,33.450 230.800 C 52.100 333.130,158.767 393.985,257.791 358.789 C 334.646 331.473,380.996 250.213,366.157 168.800 C 350.622 83.567,271.653 23.669,184.800 31.241 M68.800 159.400 L 68.800 163.600 73.000 163.600 L 77.200 163.600 77.200 167.800 L 77.200 172.000 81.600 172.000 L 86.000 172.000 86.000 176.200 L 86.000 180.400 90.400 180.400 L 94.800 180.400 94.800 184.800 L 94.800 189.200 99.200 189.200 L 103.600 189.200 103.600 195.800 L 103.600 202.400 99.214 202.400 L 94.827 202.400 94.714 206.700 L 94.600 211.000 90.300 211.114 L 86.000 211.227 86.000 215.414 L 86.000 219.600 81.600 219.600 L 77.200 219.600 77.200 223.800 L 77.200 228.000 72.800 228.000 L 68.400 228.000 68.400 232.200 L 68.400 236.400 62.200 236.400 L 56.000 236.400 56.000 229.600 L 56.000 222.800 60.200 222.800 L 64.400 222.800 64.400 218.600 L 64.400 214.400 68.800 214.400 L 73.200 214.400 73.200 210.200 L 73.200 206.000 77.600 206.000 L 82.000 206.000 82.000 201.600 L 82.000 197.200 86.400 197.200 L 90.800 197.200 90.800 195.814 L 90.800 194.427 86.500 194.314 L 82.200 194.200 82.086 190.113 L 81.972 186.027 77.686 185.913 L 73.400 185.800 73.286 181.500 L 73.173 177.200 68.786 177.200 L 64.400 177.200 64.400 173.014 L 64.400 168.827 60.100 168.714 L 55.800 168.600 55.690 161.900 L 55.581 155.200 62.190 155.200 L 68.800 155.200 68.800 159.400 M212.400 175.800 L 212.400 187.600 182.600 187.600 L 152.800 187.600 152.800 190.200 L 152.800 192.800 175.200 192.800 L 197.600 192.800 197.600 200.200 L 197.600 207.600 205.000 207.600 L 212.400 207.600 212.400 219.200 L 212.400 230.800 205.000 230.800 L 197.600 230.800 197.600 234.339 C 197.600 236.285,197.483 239.525,197.340 241.539 L 197.080 245.200 164.140 245.200 L 131.200 245.200 131.200 233.600 L 131.200 222.000 161.000 222.000 L 190.800 222.000 190.800 219.200 L 190.800 216.400 168.400 216.400 L 146.000 216.400 146.000 209.000 L 146.000 201.600 138.400 201.600 L 130.800 201.600 130.800 190.200 L 130.800 178.800 138.400 178.800 L 146.000 178.800 146.000 171.400 L 146.000 164.000 179.200 164.000 L 212.400 164.000 212.400 175.800 M284.709 171.500 L 284.818 178.800 288.809 178.800 L 292.800 178.800 292.800 171.400 L 292.800 164.000 311.200 164.000 L 329.600 164.000 329.600 171.400 L 329.600 178.800 337.000 178.800 L 344.400 178.800 344.400 199.935 C 344.400 211.559,344.281 226.499,344.135 233.135 L 343.871 245.200 333.335 245.200 L 322.800 245.200 322.800 216.400 L 322.800 187.600 311.200 187.600 L 299.600 187.600 299.600 212.739 C 299.600 226.565,299.483 239.525,299.340 241.539 L 299.080 245.200 288.605 245.200 L 278.129 245.200 277.865 233.135 C 277.719 226.499,277.600 213.539,277.600 204.335 L 277.600 187.600 266.203 187.600 L 254.805 187.600 254.703 216.300 L 254.600 245.000 243.966 245.106 L 233.331 245.213 233.066 222.941 C 232.723 194.219,232.725 164.608,233.070 164.264 C 233.218 164.115,244.873 164.040,258.970 164.097 L 284.600 164.200 284.709 171.500 " stroke="none" fill="#162a2d" fill-rule="evenodd"></path><path id="path3" d="M162.500 164.300 C 171.685 164.360,186.715 164.360,195.900 164.300 C 205.085 164.240,197.570 164.191,179.200 164.191 C 160.830 164.191,153.315 164.240,162.500 164.300 M232.984 164.497 C 232.878 164.774,232.840 173.280,232.900 183.400 L 233.008 201.800 233.104 183.100 L 233.200 164.400 258.791 164.400 L 284.382 164.400 284.505 171.700 L 284.629 179.000 284.614 171.600 L 284.600 164.200 258.889 164.097 C 238.532 164.016,233.137 164.099,232.984 164.497 M301.900 164.300 C 307.015 164.363,315.385 164.363,320.500 164.300 C 325.615 164.236,321.430 164.185,311.200 164.185 C 300.970 164.185,296.785 164.236,301.900 164.300 M329.320 176.800 C 329.320 178.010,329.395 178.505,329.487 177.900 C 329.578 177.295,329.578 176.305,329.487 175.700 C 329.395 175.095,329.320 175.590,329.320 176.800 M130.977 190.200 C 130.977 196.580,131.032 199.134,131.099 195.876 C 131.167 192.617,131.166 187.397,131.099 184.276 C 131.031 181.154,130.976 183.820,130.977 190.200 M344.086 197.500 L 344.000 216.400 333.622 216.400 L 323.244 216.400 323.094 214.500 C 323.012 213.455,322.912 219.935,322.872 228.900 L 322.800 245.200 333.352 245.200 L 343.903 245.200 344.183 216.700 C 344.336 201.025,344.397 186.040,344.317 183.400 C 344.237 180.760,344.133 187.105,344.086 197.500 M152.482 190.100 L 152.600 193.000 174.891 193.103 L 197.182 193.207 197.305 200.303 L 197.427 207.400 197.414 200.200 L 197.400 193.000 175.100 192.897 L 152.800 192.793 152.800 190.199 L 152.800 187.605 182.700 187.500 L 212.600 187.395 182.482 187.297 L 152.365 187.200 152.482 190.100 M254.400 201.800 L 254.400 216.400 243.800 216.400 L 233.200 216.400 233.200 230.800 L 233.200 245.200 243.737 245.200 L 254.274 245.200 254.537 238.536 C 254.682 234.871,254.800 221.911,254.800 209.736 L 254.800 187.600 266.150 187.600 L 277.499 187.600 277.797 216.400 L 278.095 245.200 288.583 245.200 L 299.071 245.200 299.335 232.300 C 299.480 225.205,299.599 212.248,299.599 203.506 L 299.600 187.612 311.300 187.500 L 323.000 187.387 311.100 187.294 L 299.200 187.200 299.200 201.800 L 299.200 216.400 288.600 216.400 L 278.000 216.400 278.000 201.800 L 278.000 187.200 266.200 187.200 L 254.400 187.200 254.400 201.800 M168.300 216.300 L 190.800 216.407 190.800 219.203 L 190.800 222.000 161.000 222.000 L 131.200 222.000 131.200 233.600 L 131.200 245.200 164.200 245.200 L 197.200 245.200 197.200 238.000 L 197.200 230.800 204.800 230.800 L 212.400 230.800 212.400 223.665 L 212.400 216.530 196.134 216.265 C 187.188 216.119,172.203 216.043,162.834 216.097 C 146.573 216.189,146.821 216.198,168.300 216.300 " stroke="none" fill="#8c8c8c" fill-rule="evenodd"></path><path id="path4" d="M182.600 11.006 C 108.716 17.754,45.927 66.532,20.674 136.800 C 17.959 144.356,13.266 161.620,13.950 161.536 C 14.088 161.519,17.128 161.527,20.708 161.553 L 27.215 161.600 26.951 162.700 C 26.806 163.305,26.783 163.710,26.899 163.600 C 27.015 163.490,27.768 160.700,28.571 157.400 C 50.194 68.606,138.908 10.805,229.920 26.213 C 298.112 37.758,354.998 90.418,371.378 157.163 C 372.156 160.332,372.906 163.032,373.046 163.163 C 373.185 163.293,373.175 162.995,373.023 162.500 L 372.746 161.600 379.273 161.553 C 382.863 161.527,385.912 161.519,386.050 161.536 C 386.796 161.627,382.100 144.590,379.048 136.137 C 349.560 54.443,268.980 3.117,182.600 11.006 M55.764 161.800 C 55.763 165.540,55.823 167.124,55.897 165.320 C 55.971 163.515,55.972 160.455,55.898 158.520 C 55.825 156.584,55.764 158.060,55.764 161.800 M68.550 159.400 C 68.551 161.820,68.616 162.758,68.696 161.485 C 68.776 160.212,68.775 158.232,68.694 157.085 C 68.614 155.938,68.549 156.980,68.550 159.400 M64.550 173.000 C 64.551 175.420,64.616 176.358,64.696 175.085 C 64.776 173.812,64.775 171.832,64.694 170.685 C 64.614 169.538,64.549 170.580,64.550 173.000 M73.378 181.400 L 73.400 185.800 77.686 185.913 L 81.972 186.027 82.086 190.113 L 82.200 194.200 86.500 194.314 L 90.800 194.427 90.800 195.814 L 90.800 197.200 86.400 197.200 L 82.000 197.200 82.000 201.600 L 82.000 206.000 77.600 206.000 L 73.200 206.000 73.200 210.200 L 73.200 214.400 68.800 214.400 L 64.400 214.400 64.400 218.600 L 64.400 222.800 60.200 222.800 L 56.000 222.800 56.000 229.600 L 56.000 236.400 62.200 236.400 L 68.400 236.400 68.400 232.200 L 68.400 228.000 72.800 228.000 L 77.200 228.000 77.200 223.800 L 77.200 219.600 81.600 219.600 L 86.000 219.600 86.000 215.414 L 86.000 211.227 90.300 211.114 L 94.600 211.000 94.647 206.600 C 94.673 204.180,94.616 202.695,94.521 203.300 L 94.347 204.400 88.373 204.400 L 82.400 204.400 82.400 201.000 L 82.400 197.600 86.800 197.600 L 91.200 197.600 91.200 195.800 L 91.200 194.000 86.814 194.000 L 82.428 194.000 82.314 189.900 L 82.200 185.800 77.913 185.687 L 73.627 185.573 73.491 181.287 L 73.355 177.000 73.378 181.400 M90.087 180.698 L 94.373 180.827 94.502 185.113 L 94.630 189.400 94.715 184.900 L 94.800 180.400 90.300 180.485 L 85.800 180.570 90.087 180.698 M103.364 195.800 C 103.363 199.540,103.423 201.124,103.497 199.320 C 103.571 197.515,103.572 194.455,103.498 192.520 C 103.425 190.584,103.364 192.060,103.364 195.800 M232.965 208.600 C 232.966 212.560,233.026 214.126,233.098 212.080 C 233.171 210.034,233.171 206.794,233.098 204.880 C 233.024 202.966,232.965 204.640,232.965 208.600 M277.762 223.000 C 277.762 226.520,277.824 227.906,277.898 226.081 C 277.972 224.256,277.972 221.376,277.897 219.681 C 277.822 217.986,277.761 219.480,277.762 223.000 M344.162 223.000 C 344.162 226.520,344.224 227.906,344.298 226.081 C 344.372 224.256,344.372 221.376,344.297 219.681 C 344.222 217.986,344.161 219.480,344.162 223.000 M299.362 234.200 C 299.362 237.720,299.424 239.106,299.498 237.281 C 299.572 235.456,299.572 232.576,299.497 230.881 C 299.422 229.186,299.361 230.680,299.362 234.200 M197.354 235.600 C 197.354 238.350,197.418 239.475,197.496 238.100 C 197.574 236.725,197.574 234.475,197.496 233.100 C 197.418 231.725,197.354 232.850,197.354 235.600 M254.550 240.600 C 254.551 243.020,254.616 243.958,254.696 242.685 C 254.776 241.412,254.775 239.432,254.694 238.285 C 254.614 237.138,254.549 238.180,254.550 240.600 " stroke="none" fill="#048647" fill-rule="evenodd"></path></g></svg>